<svg xmlns="http://www.w3.org/2000/svg" viewBox="0 0 64 64">
  <defs>
    <linearGradient id="shieldGradient" x1="0%" y1="0%" x2="0%" y2="100%">
      <stop offset="0%" style="stop-color:#D4AF37;stop-opacity:1" />
      <stop offset="100%" style="stop-color:#B8941F;stop-opacity:1" />
    </linearGradient>
  </defs>
  <!-- Shield Background -->
  <path d="M32 4 L12 10 L12 28 C12 40 20 50 32 56 C44 50 52 40 52 28 L52 10 Z" 
        fill="url(#shieldGradient)" 
        stroke="#1a1a1a" 
        stroke-width="2"/>
  <!-- Inner Shield Detail -->
  <path d="M32 8 L18 12 L18 26 C18 35 24 43 32 48 C40 43 46 35 46 26 L46 12 Z" 
        fill="none" 
        stroke="#1a1a1a" 
        stroke-width="1.5" 
        opacity="0.3"/>
  <!-- Security Lock Icon -->
  <rect x="26" y="28" width="12" height="10" rx="1" fill="#1a1a1a"/>
  <path d="M28 28 L28 22 C28 18 31 15 32 15 C33 15 36 18 36 22 L36 28" 
        stroke="#1a1a1a" 
        stroke-width="2" 
        fill="none" 
        stroke-linecap="round"/>
</svg>

